<?xml version="1.0" encoding="UTF-8"?><svg id="a" xmlns="http://www.w3.org/2000/svg" viewBox="0 0 800 600.7"><path d="M274.87,371.37c-8.17,.3-15.48-1.49-21.94-5.81-10.91-7.3-16.02-17.73-15.98-30.82,.03-8.87,3.34-16.86,6.31-24.97,1.36-3.7,2.92-7.37,3.76-11.19,.47-2.17,.35-4.99-.67-6.88-8.88-16.37-12.17-34.19-13.75-52.39-2.54-29.25,1.82-57.5,13.58-84.47,10.15-23.3,26.58-41.47,46.84-56.39,23.69-17.44,50.39-27.59,79.32-32.01,17.51-2.68,35.14-3.36,52.81-2,37.09,2.86,70.9,14.71,100.57,37.46,28.08,21.53,45.54,49.86,53.1,84.34,3.64,16.6,5.05,33.43,3.88,50.38-1.03,14.9-3.28,29.62-8.75,43.65-1.22,3.13-2.73,6.18-4.42,9.09-2.18,3.75-2.66,7.51-1.17,11.59,2.29,6.26,4.68,12.48,6.72,18.82,3.4,10.58,4.09,21.25-1,31.52-6.45,12.99-17.31,19.38-31.65,20.12-.58,.03-1.16,0-1.73,.04-.15,0-.29,.13-.62,.29,2.29,6.37,.22,12.27-2.34,18.06-5.04,11.42-7.33,23.53-8.89,35.79-1.47,11.6-2.62,23.24-3.81,34.87-.82,7.94-5.09,13.7-11.1,18.51-10.36,8.28-20.78,16.49-30.93,25.03-6.87,5.78-13.15,12.28-20.01,18.08-8.96,7.56-19.07,12.84-31,14.04-5.72,.58-11.24-.03-16.35-2.65-5.42-2.78-10.53-2.71-16.04-.1-10.73,5.07-21.39,3.11-31.8-1.3-8.93-3.78-16.44-9.74-23.31-16.42-12.56-12.21-25.97-23.4-39.83-34.07-5.03-3.87-10.41-7.75-12.39-14.09-1.48-4.73-2.19-9.79-2.61-14.76-1.53-18-3.91-35.84-8.99-53.21-1.33-4.56-3.29-8.94-5.02-13.38-1.84-4.72-2.76-9.48-.81-14.74Zm203.52,33.31c.67-1.89,1.77-3.63,1.82-5.4,.15-5.41,.15-10.85-.26-16.24-.69-9.05,1.04-17.41,6.48-24.75,3.61-4.87,8.89-7.05,15.54-7.9-1.27-.36-1.79-.59-2.34-.64-11.21-1.23-21.59,6.1-24.16,17.02-.26,1.12-.68,2.2-1.03,3.3l-1.06,.06c-.5-1.37-1.32-2.7-1.46-4.1-1.15-11.62,8.83-23.01,20.5-23.87,7.95-.58,15.38,1.26,22.6,4.2,8.3,3.38,16.44,7.16,24.78,10.44,9.93,3.91,20.32-.81,24.27-10.76,2.73-6.9,2.89-14.06,1.04-21.12-.96-3.67-2.62-7.28-4.59-10.55-2.43-4.05-5.21-3.87-7.73,.09-1.19,1.87-2.14,3.89-3.22,5.83-.46,.83-.97,1.62-1.46,2.43-.32-.49-.3-.81-.23-1.11,3.3-12.97,6.7-25.92,9.89-38.92,2.37-9.64,3.4-19.43,.08-29.02-2.23-6.42-5.09-12.64-7.96-18.82-2.97-6.38-5.65-12.8-5.97-19.95-.21-4.75,.22-9.41,2.59-13.66,1.81-3.25,4.95-3.66,7.17-.69,1.49,1.99,2.89,4.4,3.25,6.79,.78,5.1,.85,10.32,1.24,15.48,.19,2.53,.41,5.06,.62,7.6l.56-.06c.63-2.5,1.26-4.99,1.89-7.49l.68,.18c-.18,3.88-.37,7.76-.55,11.63l.81,.16,2.85-8.55,.67,.12c-.36,3.68-.72,7.36-1.07,11.04,1.15-1.36,2.06-2.8,2.32-4.34,.95-5.5,2.09-11,2.41-16.55,.58-10.08-.54-20.08-2.35-30.01-4.15-22.83-14.1-42.76-30.23-59.4-13.53-13.96-29.39-24.88-46.71-33.68-21.97-11.16-45.37-16.86-69.9-18.3-24.43-1.43-48.39,.96-71.76,8.45-23.46,7.52-44.18,19.81-62.83,35.84-15.41,13.25-26.84,29.13-33.34,48.43-5.26,15.62-7.49,31.75-7.04,48.16,.16,6.01,1.74,12,2.85,17.97,.24,1.3,1.22,2.47,1.86,3.69l.58-.26c-.33-1.67-.74-3.34-.97-5.03-.22-1.64-.24-3.31-.35-4.96l.64-.11c.95,2.47,1.9,4.94,2.85,7.41l.86-.22c-.29-3.72-.57-7.44-.86-11.16l.77-.14,2.01,7.09c.69-2.4,.92-4.69,1.02-6.99,.19-4.2-.08-8.47,.56-12.59,.52-3.32,1.64-6.74,3.33-9.63,2.18-3.73,5.95-3.35,7.85,.54,.99,2.04,1.65,4.31,2.06,6.55,1.4,7.78-.77,15.03-3.78,22.06-2.29,5.36-4.95,10.57-7.23,15.94-3.58,8.4-5.66,17.23-4,26.27,2.05,11.15,4.88,22.16,7.54,33.19,1.38,5.72,3.12,11.34,4.7,17.01l-.72,.29c-1.21-2.27-2.21-4.7-3.7-6.78-1.23-1.72-2.85-3.95-4.62-4.3-2.57-.51-3.91,2.22-5.1,4.32-4.71,8.29-5.39,17.13-3.59,26.32,2.28,11.62,14.62,19.4,26.82,13.81,6.43-2.95,12.95-5.7,19.49-8.39,7.08-2.92,14.21-5.71,22.05-5.89,7.94-.19,14.86,2.02,19.78,8.6,3.58,4.79,6.13,10.03,4.75,16.28-.26,1.18-1.2,2.21-1.82,3.31-.34-.03-.69-.05-1.03-.08-.95-6.26-2.22-12.3-8.09-15.91-5.39-3.31-11.12-4.86-17.42-4.04,5.59,.9,10.46,3.12,13.98,7.66,5.03,6.5,7.19,13.97,7.09,22.15-.07,5.76-.35,11.53-.06,17.28,.14,2.81,1.38,5.56,2.13,8.34,1.23-.66,1.7-1.21,2.11-1.79,2.75-3.92,5.13-3.87,7.75,.13,.69,1.05,1.49,2.04,2.52,3.44,.61-1.37,.94-2.19,1.33-2.98,2.16-4.35,5.92-4.98,9.36-1.54,.7,.7,1.34,1.46,1.91,2.27,.66,.93,1.2,1.95,1.79,2.93,1.45-1.44,1.9-2.2,2.34-2.96,2.48-4.27,6.48-4.88,10.04-1.46,.95,.91,1.74,1.98,2.59,2.99,1.76,2.08,2.29,2.05,3.73-.18,1.76-2.72,3.52-3.71,6.44-2.77,1.78,.58,3.37,1.93,4.85,3.17,.83,.69,1.26,1.87,2.02,3.07,1.15-1.47,1.6-2.04,2.04-2.62,2.17-2.83,4.31-3.34,7.54-1.72,.88,.44,1.78,.93,2.48,1.6,1.49,1.43,2.67,1.24,4.23-.05,4.77-3.94,7.43-3.75,11.58,.64,.92,.97,1.6,1.02,2.41,.03,.89-1.08,1.71-2.22,2.66-3.25,3.32-3.61,7.17-3.28,9.85,.8,.57,.87,1.15,1.73,1.95,2.92,1.66-1.81,3.1-3.37,4.53-4.94,3.58-3.97,7.92-3.33,10.26,1.5,.37,.77,.78,1.53,1.37,2.69,1.42-1.79,2.56-3.27,3.75-4.7,1.95-2.36,3.74-2.32,5.62,.12,.62,.8,1.18,1.65,1.79,2.51q5.09-5.18,10.15-.78Zm-115.22,67.16c-.55,.92-.91,1.56-1.31,2.18-2.84,4.4-7.06,4.6-10.19,.32-1.09-1.5-1.8-3.31-2.5-5.05-.48-1.19-1.01-1.87-2.44-1.89-3.65-.05-6.19-1.84-7.71-5.19-.3-.67-.96-1.43-1.62-1.65-8.05-2.64-13.13-8.52-17.14-15.57-8.01-14.11-12.52-29.46-15.8-45.22-1.47-7.08-2.79-14.21-4.52-21.23-.52-2.12-1.92-4.2-3.41-5.86-1.87-2.09-4.75-1.67-6.38,.63-.7,.99-1.23,2.15-1.57,3.32-1.34,4.59-.23,9.03,1.32,13.29,4.93,13.55,7.2,27.5,7.23,41.9,.01,6.42,.48,12.86,1.03,19.27,.9,10.32,6.54,17.77,14.98,23.23,14.49,9.36,27.47,20.49,39.36,32.96,2.84,2.98,5.95,5.74,9.19,8.27,8.13,6.36,16.9,11.23,27.75,10.44,4.93-.36,9.08-2.22,11.96-6.43,.7-1.02,1.39-2.05,2.18-3,2.34-2.8,5.45-2.81,7.81-.02,.74,.88,1.39,1.84,2.01,2.81,2.55,3.96,6.35,6.13,10.85,6.48,3.56,.28,7.28,.02,10.77-.74,9.05-1.96,16.35-7.21,23-13.37,8.54-7.9,16.69-16.23,25.52-23.79,6.49-5.55,13.8-10.13,20.71-15.2,6.85-5.03,11.76-11.29,12.27-20.18,.49-8.73,.98-17.45,1.37-26.19,.45-9.82,1.45-19.53,4.83-28.87,1.31-3.63,2.36-7.36,3.35-11.09,1.03-3.87,1.5-7.82-.35-11.6-2.09-4.25-6.15-4.73-8.63-.73-1.73,2.79-2.85,6.1-3.58,9.33-2.49,11.07-4.35,22.29-7.08,33.3-2.77,11.19-6.66,22.05-13.15,31.76-3.16,4.73-6.9,8.77-12.23,11.18-1.31,.59-2.51,1.76-3.38,2.94-1.58,2.13-3.22,3.98-6.08,4.13-1.94,.1-2.84,1.25-3.48,2.95-.6,1.59-1.26,3.26-2.31,4.57-1.95,2.43-4.02,2.25-5.9-.2-.57-.75-1.14-1.5-1.83-2.42-2.08,2.98-3.21,6.47-7.21,6.93-4.4,.51-5.11-3.7-7.61-5.98-1.21,1.37-2.36,2.65-3.48,3.94-3.04,3.5-6.71,4.8-10.34,.33-1.17-1.44-2.5-1.39-3.93-.55-.84,.5-1.68,1.05-2.42,1.69-5.14,4.5-7.23,5.46-12.42-.06-.23,.21-.5,.4-.7,.65-3.63,4.52-6.84,4.05-10.95,.56-.38-.32-.74-.66-1.13-.97q-2.88-2.36-5.72,.05c-2.91,2.47-5.25,2.41-8.08-.14-1.62-1.46-3.29-2.87-5.01-4.37-.94,1.08-1.66,1.87-2.34,2.7-2.94,3.55-6.3,3.71-9.43,.34-1.39-1.5-2.65-3.13-4.15-4.92Zm31.37-42.8c-.17-3.25-.11-5.91-.5-8.51-.44-2.98-.95-6.04-2.06-8.8-.56-1.4-2.46-2.96-3.87-3.08-1.06-.09-2.77,1.79-3.39,3.16-3.38,7.4-4.6,15.25-3.96,23.34,.28,3.51,1.97,6.25,5.36,7.68,3.97,1.68,6.75,.39,7.49-3.83,.61-3.47,.68-7.03,.93-9.95Zm30.89,4.87c-.19-8.22-1.46-14.74-3.61-21.08-.56-1.64-.99-3.77-3.34-3.73-2.21,.04-3.09,1.92-3.96,3.61-.19,.36-.33,.76-.43,1.15-2.01,8.05-2.82,16.26-2.28,24.51,.38,5.8,4.02,7.37,9.13,4.49,4.19-2.36,4.74-6.21,4.49-8.96Zm16.4-2.79c-.32-8.8-2.91-15.28-5.92-21.59-.95-1.99-2.41-2.17-3.88-.47-1.02,1.19-1.86,2.73-2.26,4.25-2.19,8.33-1.64,16.85-1.42,25.32,.07,2.85,1.91,4.16,4.75,4.2,3.09,.04,5.37-1.51,6.49-4.11,1.23-2.88,1.8-6.04,2.24-7.59Zm2.28-6.59l.49,.03c0,3.54-.14,7.09,.04,10.63,.17,3.24,2.03,5.49,4.18,5.59,4.88,.23,8.57-3.21,8.68-8.07,.18-7.97-1.81-15.48-4.93-22.73-.75-1.75-1.5-4.09-3.93-3.8-2.41,.29-2.69,2.79-2.97,4.62-.71,4.55-1.07,9.15-1.57,13.73Zm-65.84,7.5l.23-.02c-.43-5.25-.73-10.51-1.35-15.73-.28-2.32-.93-4.7-1.93-6.81-1.13-2.37-3.5-2.38-4.39,0-2.14,5.74-4.39,11.51-5.68,17.47-.92,4.22,.05,8.71,2.5,12.55,1.57,2.46,5.22,3.78,7.84,2.77,2.62-1,2.71-3.44,2.78-5.78,.04-1.48,0-2.97,0-4.45Zm31.55,2.97c-.46-3.66-.68-7.21-1.41-10.65-.88-4.15-2.07-8.25-3.41-12.27-.3-.91-1.74-1.82-2.75-1.95-.56-.07-1.76,1.41-1.92,2.33-1.35,7.59-2.83,15.17-3.67,22.83-.59,5.43,2.78,8.69,8.27,9.1,2.77,.2,4.07-.65,4.5-3.36,.32-2.01,.28-4.09,.39-6.02Zm-47.68-9.57l.45-.11c-.86-5.66-1.63-11.33-2.65-16.96-.18-1.01-1.45-2.59-2.15-2.55-1.04,.05-2.24,1.14-2.98,2.09-.84,1.07-1.44,2.42-1.8,3.75-1.22,4.42-2.59,8.84-3.32,13.36-.53,3.27-.43,6.72-.06,10.03,.3,2.68,3.84,4.65,7.1,4.56,2.53-.07,4.29-1.71,4.7-4.82,.4-3.09,.5-6.22,.73-9.33Zm63.13,31.74c-.38-7.18-1.84-8.56-8.85-7.96-.08,0-.17,0-.25,.02-2.74,.32-4.18,1.75-4.23,4.52-.06,3.3-.17,6.62,.14,9.89,.36,3.75,.85,7.54,1.86,11.15,.91,3.23,3.76,3.74,6.07,1.26,1.24-1.33,2.36-3.09,2.76-4.83,1.06-4.63,1.7-9.36,2.5-14.05Zm-28.39-.41c.26,2.71,.36,5.44,.81,8.11,.54,3.23,1.18,6.48,2.16,9.6,.66,2.09,2.15,3.84,4.77,3.44,2.38-.36,3.17-2.3,3.35-4.31,.57-6.48,1.03-12.97,1.41-19.46,.12-2.1-.98-3.81-3.1-4.2-8.24-1.5-9.58-.53-9.4,6.81Zm-25.43-8.56c-4.2-.07-5.37,.65-5.4,4.43-.03,3.9,.44,7.87,1.23,11.7,.69,3.33,1.91,6.6,3.34,9.7,1.01,2.19,2.91,2.05,4.11-.08,.68-1.2,1.27-2.52,1.52-3.86,.89-4.92,1.74-9.85,2.37-14.81,.65-5.11-.56-6.47-5.7-7.01-.65-.07-1.31-.07-1.48-.07Zm23.09,9.52l-.44-.06c0-1.48,.08-2.97-.02-4.44-.18-2.79-1.41-3.95-4.2-4.04-1.56-.05-3.12-.05-4.69-.03-2.29,.04-3.74,1.21-3.43,3.51,.86,6.24,1.81,12.48,3.01,18.66,.39,1.98,1.19,4.59,3.81,4.5,2.62-.09,3.52-2.63,3.93-4.76,.87-4.41,1.36-8.9,2.01-13.35Zm46.15-2.9c0-.58,0-1.15,0-1.73,0-2.07-.65-3.82-2.85-4.34-3.46-.82-8.01,.42-8.81,2.25-.1,.22-.2,.46-.23,.7-.75,7.21-.37,14.32,2.41,21.09,.45,1.1,1.85,2.5,2.81,2.51,.95,0,2.27-1.42,2.79-2.52,2.7-5.66,3.25-11.82,3.86-17.95Zm15.76,.61c0-.74,.05-1.49,0-2.22-.51-6.6-3.33-8.24-9.42-5.49-1.57,.71-2.65,1.83-2.37,3.62,1.05,6.97,2.12,13.95,3.39,20.89,.19,1.03,1.51,1.84,2.3,2.76,.89-.84,2.16-1.5,2.62-2.53,2.43-5.39,3.21-11.17,3.49-17.02Zm-93.94-2.32c-.69-1.67-1-4.16-2.41-5.42-1.58-1.41-4.12-1.86-6.31-2.41-1.5-.38-2.63,.61-2.73,2.14-.58,8.22,.09,16.31,3.31,23.99,.44,1.04,1.74,1.72,2.64,2.56,.83-1,2.17-1.9,2.4-3.02,1.16-5.71,2.03-11.47,3.12-17.85Zm101.15-47.51l-.84,.05c-.62,1.71-1.45,3.37-1.81,5.14-1.48,7.34-.95,14.75-.36,22.13,.14,1.76,.63,3.58,1.4,5.16,.38,.78,1.77,1.56,2.66,1.51,2.58-.14,4.52-2.27,4.68-4.91,.54-8.8-.78-17.36-3.63-25.68-.42-1.23-1.39-2.27-2.11-3.4Zm-120.84-.37c-.68,1.33-1.36,2.25-1.65,3.28-.88,3.16-1.98,6.32-2.33,9.55-.57,5.28-.77,10.62-.79,15.94-.01,2.4,1.71,3.87,4.2,4.01,2.64,.15,2.9-1.98,3.35-3.78,1.64-6.56,1.44-13.22,.67-19.86-.35-3.05-.53-6.24-3.45-9.13Zm131.73,.33l-1.22-.02c-.5,1.06-1.39,2.11-1.42,3.19-.2,6.24-.38,12.5-.17,18.74,.09,2.74,.9,5.52,1.8,8.14,.76,2.21,2.85,2.25,4.07,.24,.41-.68,.6-1.52,.74-2.32,1.08-6.39-.1-12.64-1.33-18.86-.61-3.08-1.63-6.07-2.46-9.1Zm-15.1,49.82c.66,4.3,1.36,9.25,2.22,14.18,.13,.74,1.01,1.34,1.54,2.01,.44-.52,1.13-.98,1.29-1.58,2.04-7.6,3.28-15.28,1.78-23.14-.3-1.55-.62-3.5-2.87-3.39-2.15,.1-3.21,1.61-3.43,3.58-.28,2.53-.34,5.08-.53,8.34Zm-111.89-.98h.09c0-2.95,.13-5.91-.04-8.85-.13-2.25-1.59-3.67-3.86-3.71-2.26-.04-2.78,1.97-3.04,3.6-.96,6.06,.24,11.78,3.34,17.05,.38,.65,1.38,.93,2.09,1.38,.47-.77,1.29-1.51,1.35-2.31,.18-2.37,.07-4.77,.07-7.16Zm122.7,8.96l.97,.21c.69-.96,1.75-1.82,2.02-2.89,1.02-4.03,1.93-8.1,2.57-12.21,.25-1.64-.08-3.49-.63-5.08-.33-.96-1.79-2.38-2.38-2.23-1.25,.32-2.43,1.41-3.31,2.46-.49,.59-.44,1.74-.42,2.64,.11,4.45,.24,8.91,.47,13.36,.06,1.25,.46,2.49,.71,3.74Zm-132.62-15.45c.21-3.32,.33-7.41-2.77-10.64-.66-.69-2.1-1.59-2.56-1.32-.8,.46-1.48,1.73-1.56,2.71-.47,5.76,1.22,11.07,3.85,16.1,.31,.6,1.19,.89,1.81,1.33,.41-.66,1.11-1.29,1.17-1.99,.17-1.8,.06-3.63,.06-6.2Zm-3.33-41.22l-.86-.15c-.71,1.14-1.57,2.22-2.09,3.43-2.43,5.64-2.03,11.44-.61,17.2,.29,1.16,1.45,2.1,2.22,3.14,.56-1.13,1.11-2.25,1.66-3.38,.03-.07,.02-.16,.02-.25,.15-4.95,.37-9.89,.4-14.84,0-1.72-.48-3.44-.74-5.16Zm144.08,41.74l.19,.05c0,1.8-.13,3.62,.06,5.4,.08,.77,.81,1.48,1.25,2.21,.65-.54,1.55-.95,1.91-1.64,2.48-4.75,3.74-9.83,3.33-15.18-.09-1.19-1.13-2.31-1.73-3.46-1,.85-2.07,1.64-2.96,2.59-.41,.44-.59,1.18-.7,1.81-.48,2.73-.9,5.48-1.35,8.22Zm3.79-41.3c-2.21,3.19-1.43,21.57,.99,23.51,4.26-3.51,3.58-19.67-.99-23.51Z"/><path d="M476.05,213.23c22.48,.69,41.81,8.51,58.26,23.38,8.73,7.89,13.06,17.79,12.82,29.63-.18,8.91-.46,17.8-3.38,26.35-4.55,13.33-17.02,22.98-31.05,23.87-20.31,1.29-38.05-5.27-53.61-18.05-11-9.04-19.23-20.15-23.03-34.02-3.52-12.82-2.51-25.21,5.78-36.18,6.33-8.37,15.05-12.84,25.36-14.26,3.01-.41,6.07-.5,8.86-.72Z"/><path d="M338.72,213.46c9.62-.24,18.76,1.55,26.58,7.46,11.35,8.59,16.27,20.24,15.1,34.35-1.34,16.25-9.51,29.03-21.09,39.86-10.28,9.62-22.13,16.51-36.02,19.55-8.59,1.88-17.27,3.26-25.95,1.02-14.16-3.65-23.52-12.44-27.1-26.82-2.49-10.01-3.07-20.2-1.83-30.44,1.32-10.86,7.67-18.73,15.85-25.3,14.25-11.46,30.62-17.8,48.77-19.63,.33-.03,.66-.05,.99-.05,1.57,0,3.14,0,4.7,0Z"/><path d="M407.52,302.47c-.28,6.48-.39,15.15-1.12,23.78-.58,6.95-1.57,13.9-3,20.73-1.07,5.11-3.99,9.43-8.78,12.02-6.34,3.42-12.95,1.33-16.38-5.07-3.11-5.8-3.29-12.07-2.16-18.3,2.18-12.09,7.29-23.19,12.3-34.28,2.98-6.59,6.35-13,9.78-19.37,1.23-2.29,2.98-4.36,4.78-6.26,2.64-2.79,6.75-2.88,9.5-.2,1.69,1.65,3.27,3.55,4.42,5.6,9.26,16.57,17.06,33.78,21.96,52.18,1.46,5.5,1.33,11.12-.19,16.63-1.42,5.14-4.21,9.33-9.73,10.45-5.72,1.16-10.05-1.66-13.4-6.09-3.66-4.84-5-10.57-5.49-16.41-1.06-12.48-1.79-24.99-2.51-35.39Z"/><path d="M349.21,368.95c-.54-3.19-.77-6.46-1.69-9.54-1.29-4.29-2.86-8.53-4.73-12.61-1.68-3.68-4.61-6.37-8.34-8.11-.81-.38-1.73-.75-2.31-1.38-.82-.89-1.37-2.02-2.04-3.04,1.15-.47,2.29-1.27,3.46-1.33,2.62-.13,5.3,.46,7.87,.13,5.03-.63,8.29-4.21,11.22-7.91,3-3.79,5.69-7.84,8.87-12.27-.21,1.17-.21,1.93-.48,2.55-2.6,5.93-5.11,11.91-7.95,17.72-.9,1.85-2.5,3.59-4.2,4.75-1.93,1.31-1.78,2.52-1.07,4.29,3.18,8,3.72,16.31,2.71,24.78-.08,.69-.43,1.36-.65,2.03l-.68-.06Z"/><path d="M452.98,312.46c2.84,4.07,5.24,7.68,7.83,11.15,1.42,1.9,3.14,3.6,4.79,5.32,3.89,4.05,8.69,4.88,14.08,4.17,1.61-.21,4.41,.21,4.83,1.15,.88,1.99-1.47,3.03-2.99,3.81-9.76,5-13.06,14.04-15.09,23.87-.48,2.34-.77,4.72-1.15,7.08h-.85c-.17-.8-.44-1.58-.49-2.38-.55-8.46-.13-16.79,3.29-24.72,.69-1.61,.62-2.78-1.12-3.89-1.48-.94-2.76-2.37-3.76-3.84-4.05-5.95-6.97-12.46-9.03-19.35-.17-.57-.18-1.2-.34-2.39Z"/><path d="M390.15,240.59c-.49-3.85-.88-7.71-1.5-11.53-.6-3.72-1.12-7.49-2.23-11.07-1.77-5.69-5.6-9.7-11.17-12.08-1.27-.54-3.11-1.98-3.05-2.91,.12-1.96,2.27-1.94,3.92-2.04,7.69-.47,14.16,4.86,16.02,13.17,1.33,5.96,.86,11.95,.2,17.93-.32,2.87-.83,5.71-1.25,8.57l-.92-.03Z"/><path d="M423.7,240.53c-.38-2.49-.87-4.97-1.12-7.47-.68-6.89-1.2-13.78,.79-20.57,2.26-7.72,9.54-12.78,16.7-11.44,1.11,.21,2.06,1.23,3.09,1.88-.82,.92-1.47,2.25-2.5,2.69-5.56,2.36-10.05,5.9-11.9,11.73-1.43,4.5-2.08,9.25-2.93,13.92-.55,3.04-.84,6.12-1.25,9.19l-.88,.08Z"/><path d="M406.99,254.29c-.48-4.58-.97-9.15-1.44-13.73-.61-5.9-1.22-11.8-1.79-17.7-.44-4.58,.09-9.06,1.78-13.34,.36-.9,1.27-1.59,1.93-2.37,.71,.83,1.69,1.55,2.07,2.51,2.32,5.78,1.9,11.78,1.24,17.8-.82,7.45-1.55,14.91-2.34,22.37-.16,1.5-.44,2.99-.66,4.49l-.79-.03Z"/><path d="M483.49,189.05c4.93,1.81,10.32,2.69,13.51,7.11l-.51,1.05c-.92-.3-1.97-.42-2.74-.94-3.46-2.34-6.85-4.8-10.26-7.22Z"/><path d="M330.46,189.21l-11.79,8.35-.97-.9c.46-.78,.73-1.89,1.42-2.29,3.58-2.08,7.26-3.97,10.91-5.93l.43,.76Z"/><path d="M259.54,314.52c3.09,1.95,6.27,9.76,4.86,12.91-1.69-4.49-3.23-8.58-4.86-12.91Z"/><path d="M555.19,314.64c-1.49,4.09-3.01,8.24-4.53,12.4-1.38-3.51,1.85-11.02,4.53-12.4Z"/><path d="M300.98,450.96c-1.27-5.51,.1-10.95,1.01-16.4v16.42l-1.01-.02Z"/><path d="M513.92,453.97c-1.63-4.86,.05-9.77-.26-14.66,.32,4.88,2.03,9.72,.26,14.66Z"/></svg>